<svg width="85" height="85" viewBox="0 0 85 85" fill="none" xmlns="http://www.w3.org/2000/svg">
<path d="M49.582 75.2593H35.4154V80.5718H49.582V75.2593ZM9.73829 49.5822V35.4156H4.42579V49.5822H9.73829ZM75.2591 48.0345V49.5822H80.5716V48.0345H75.2591ZM52.7377 16.3295L66.7591 28.9485L70.3114 24.996L56.2935 12.377L52.7377 16.3295ZM80.5716 48.0345C80.5716 42.0526 80.6247 38.2631 79.1195 34.8772L74.2639 37.0412C75.206 39.1591 75.2591 41.5851 75.2591 48.0345H80.5716ZM66.7591 28.9485C71.551 33.2622 73.3218 34.9268 74.2639 37.0412L79.1195 34.8772C77.6108 31.4879 74.7597 28.9981 70.3114 24.996L66.7591 28.9485ZM35.5216 9.73848C41.1245 9.73848 43.2389 9.78098 45.1195 10.5035L47.0249 5.54515C44.0075 4.38348 40.7208 4.42598 35.5216 4.42598V9.73848ZM56.2935 12.3806C52.4472 8.92035 50.0424 6.69973 47.0249 5.54515L45.1231 10.5035C47.0072 11.226 48.5939 12.6001 52.7377 16.3295L56.2935 12.3806ZM35.4154 75.2593C28.6614 75.2593 23.866 75.2522 20.2216 74.7635C16.6622 74.2854 14.6081 73.3858 13.11 71.8876L9.35579 75.6418C12.005 78.2981 15.366 79.4704 19.5168 80.0299C23.5897 80.5789 28.8137 80.5718 35.4154 80.5718V75.2593ZM4.42579 49.5822C4.42579 56.1839 4.4187 61.4043 4.96766 65.4808C5.52724 69.6316 6.70308 72.9926 9.35224 75.6454L13.1064 71.8912C11.6118 70.3895 10.7122 68.3354 10.2341 64.7724C9.74537 61.1351 9.73829 56.3362 9.73829 49.5822H4.42579ZM49.582 80.5718C56.1837 80.5718 61.4041 80.5789 65.4806 80.0299C69.6314 79.4704 72.9924 78.2945 75.6452 75.6454L71.891 71.8912C70.3893 73.3858 68.3352 74.2854 64.7722 74.7635C61.135 75.2522 56.336 75.2593 49.582 75.2593V80.5718ZM75.2591 49.5822C75.2591 56.3362 75.252 61.1352 74.7633 64.776C74.2852 68.3354 73.3856 70.3895 71.8875 71.8876L75.6416 75.6418C78.2979 72.9927 79.4702 69.6316 80.0297 65.4808C80.5787 61.4079 80.5716 56.1839 80.5716 49.5822H75.2591ZM9.73829 35.4156C9.73829 28.6616 9.74537 23.8662 10.2341 20.2218C10.7122 16.6624 11.6118 14.6083 13.11 13.1101L9.35579 9.35598C6.69954 12.0051 5.52724 15.3662 4.96766 19.517C4.4187 23.5899 4.42579 28.8139 4.42579 35.4156H9.73829ZM35.5216 4.42598C28.881 4.42598 23.6358 4.4189 19.5452 4.96785C15.3766 5.52744 12.005 6.70327 9.35224 9.35244L13.1064 13.1066C14.6081 11.612 16.6658 10.7124 20.25 10.2343C23.9085 9.74556 28.7322 9.73848 35.5216 9.73848V4.42598Z" fill="#A1A0A0"/>
<path d="M46.0391 8.85156V17.7057C46.0391 26.0534 46.0391 30.2291 48.6316 32.8216C51.2241 35.4141 55.3997 35.4141 63.7474 35.4141H77.9141" stroke="#A1A0A0" stroke-width="4"/>
</svg>
