<svg width="24" height="24" viewBox="0 0 24 24" fill="none" xmlns="http://www.w3.org/2000/svg">
<circle cx="12" cy="12" r="11" stroke="#0071BC" stroke-width="2"/>
<path d="M12.128 8.016C11.7973 8.016 11.52 7.904 11.296 7.68C11.072 7.456 10.96 7.17867 10.96 6.848C10.96 6.51733 11.072 6.24 11.296 6.016C11.52 5.792 11.7973 5.68 12.128 5.68C12.448 5.68 12.72 5.792 12.944 6.016C13.168 6.24 13.28 6.51733 13.28 6.848C13.28 7.17867 13.168 7.456 12.944 7.68C12.72 7.904 12.448 8.016 12.128 8.016ZM13.024 9.184V18H11.2V9.184H13.024Z" fill="#0071BC"/>
</svg>
