<svg width="17" height="16" viewBox="0 0 17 16" fill="none" xmlns="http://www.w3.org/2000/svg">
<g id="Frame" clip-path="url(#clip0_2204_5479)">
<path id="Vector" d="M6.5 7.33334C6.5 7.86378 6.71071 8.37248 7.08579 8.74756C7.46086 9.12263 7.96957 9.33334 8.5 9.33334C9.03043 9.33334 9.53914 9.12263 9.91421 8.74756C10.2893 8.37248 10.5 7.86378 10.5 7.33334C10.5 6.80291 10.2893 6.2942 9.91421 5.91913C9.53914 5.54406 9.03043 5.33334 8.5 5.33334C7.96957 5.33334 7.46086 5.54406 7.08579 5.91913C6.71071 6.2942 6.5 6.80291 6.5 7.33334Z" stroke="#0071BC" stroke-linecap="round" stroke-linejoin="round"/>
<path id="Vector_2" d="M12.2687 11.1047L9.44006 13.9334C9.19006 14.1831 8.85112 14.3234 8.49773 14.3234C8.14434 14.3234 7.80541 14.1831 7.5554 13.9334L4.72607 11.1047C3.98021 10.3588 3.47229 9.40852 3.26652 8.37396C3.06076 7.3394 3.16639 6.26706 3.57007 5.29254C3.97374 4.31801 4.65733 3.48508 5.53439 2.89905C6.41144 2.31303 7.44258 2.00024 8.4974 2.00024C9.55222 2.00024 10.5834 2.31303 11.4604 2.89905C12.3375 3.48508 13.0211 4.31801 13.4247 5.29254C13.8284 6.26706 13.934 7.3394 13.7283 8.37396C13.5225 9.40852 13.0146 10.3588 12.2687 11.1047Z" stroke="#0071BC" stroke-linecap="round" stroke-linejoin="round"/>
</g>
<defs>
<clipPath id="clip0_2204_5479">
<rect width="16" height="16" fill="white" transform="translate(0.5)"/>
</clipPath>
</defs>
</svg>
