<svg width="150" height="40" viewBox="0 0 150 40" fill="none" xmlns="http://www.w3.org/2000/svg">
<path d="M55.6914 23.4121C59.3742 23.4121 61.7613 24.6589 61.7613 27.8959C61.7613 31.3102 58.9207 32.4899 55.512 32.4899H53.3044V37.5443C53.3044 38.8583 52.3475 39.0981 51.8741 39.0981C51.3957 39.0981 50.4438 38.8583 50.4438 37.5443V25.057C50.4438 23.9396 50.992 23.4169 52.1482 23.4169H55.6914V23.4121ZM53.3044 30.1689H55.3027C57.1666 30.1689 58.8709 29.7325 58.8709 27.8959C58.8709 26.0592 57.1666 25.7283 55.3924 25.7283H53.2994V30.1689H53.3044Z" fill="white"/>
<path d="M72.9046 37.7158C72.9046 38.8955 72.0175 39.0921 71.6089 39.0921C71.2003 39.0921 70.3132 38.8955 70.3132 37.7158V37.2123H70.2683C69.7899 38.2625 68.4942 39.2024 66.8796 39.2024C64.039 39.2024 62.8579 37.102 62.8579 34.9584V29.6642C62.8579 28.4174 63.7699 28.1968 64.2234 28.1968C64.6769 28.1968 65.5889 28.4174 65.5889 29.6642V34.2151C65.5889 35.4619 65.8829 37.0156 67.6371 37.0156C69.3663 37.0156 70.1836 35.5722 70.1836 34.1719V29.6642C70.1836 28.4174 71.0906 28.1968 71.5491 28.1968C72.0026 28.1968 72.9146 28.4174 72.9146 29.6642V37.7158H72.9046Z" fill="white"/>
<path d="M77.4055 39.092C76.952 39.092 76.04 38.8714 76.04 37.6246V29.597C76.04 28.4173 76.9271 28.1967 77.3357 28.1967C77.7693 28.1967 78.6564 28.4173 78.6564 29.597V30.1437H78.7012C79.1348 29.0072 80.2262 28.0864 81.5418 28.0864C82.3591 28.0864 82.9521 28.4797 82.9521 29.2469C82.9521 29.9231 82.5186 30.5129 81.472 30.5129C79.7428 30.5129 78.766 31.7597 78.766 33.5101V37.6246C78.771 38.8762 77.864 39.092 77.4055 39.092Z" fill="white"/>
<path d="M86.0222 38.8996C84.8611 38.8996 84.3179 38.3721 84.3179 37.2595V25.0551C84.3179 23.9377 84.866 23.415 86.0222 23.415H90.0239C94.23 23.415 98.9145 25.338 98.9145 31.1597C98.9145 36.5834 94.23 38.9044 90.0239 38.9044H86.0222V38.8996ZM87.1834 36.4923H89.5704C92.5256 36.4923 95.8446 35.3318 95.8446 31.1549C95.8446 26.7143 92.5256 25.7744 89.5704 25.7744H87.1834V36.4923Z" fill="white"/>
<path d="M102.781 39.092C102.327 39.092 101.415 38.8714 101.415 37.6246V29.597C101.415 28.4173 102.302 28.1967 102.711 28.1967C103.144 28.1967 104.031 28.4173 104.031 29.597V30.1437H104.076C104.51 29.0072 105.601 28.0864 106.917 28.0864C107.734 28.0864 108.327 28.4797 108.327 29.2469C108.327 29.9231 107.894 30.5129 106.847 30.5129C105.118 30.5129 104.141 31.7597 104.141 33.5101V37.6246C104.141 38.8762 103.234 39.092 102.781 39.092Z" fill="white"/>
<path d="M110.939 26.4079C109.938 26.4079 109.21 25.6646 109.21 24.835C109.21 24.0054 109.938 23.2573 110.939 23.2573C111.941 23.2573 112.713 23.9383 112.713 24.835C112.713 25.727 111.941 26.4079 110.939 26.4079ZM110.964 39.0919C110.511 39.0919 109.599 38.8714 109.599 37.6245V29.6593C109.599 28.4124 110.511 28.1919 110.964 28.1919C111.418 28.1919 112.33 28.4124 112.33 29.6593V37.6245C112.33 38.8762 111.418 39.0919 110.964 39.0919Z" fill="white"/>
<path d="M119.74 39.0921C119.082 39.0921 118.285 38.8283 117.762 37.6486L114.443 30.1869C114.308 29.88 114.263 29.6402 114.263 29.4436C114.263 28.7243 114.851 28.1968 115.649 28.1968C116.077 28.1968 116.625 28.3502 116.989 29.271L119.715 36.0518H119.76L122.556 29.2518C122.919 28.355 123.463 28.2016 123.876 28.2016C124.674 28.2016 125.217 28.7291 125.217 29.4052C125.217 29.5395 125.192 29.7985 125.032 30.1485L121.713 37.6534C121.195 38.8331 120.378 39.0921 119.74 39.0921Z" fill="white"/>
<path d="M129.13 34.4788C129.244 35.9654 130.655 37.0587 132.244 37.0587C133.381 37.0587 134.063 36.7087 134.746 36.162C135.135 35.8551 135.384 35.7879 135.678 35.7879C136.291 35.7879 136.769 36.2004 136.769 36.8381C136.769 37.0587 136.68 37.4472 136.316 37.7781C135.249 38.7611 134.019 39.1975 132.269 39.1975C128.906 39.1975 126.404 37.1211 126.404 33.7067C126.404 30.3163 128.881 28.0864 132.18 28.0864C134.816 28.0864 136.954 29.5299 137.387 32.6133C137.407 32.8339 137.432 32.9874 137.432 33.16C137.432 34.0808 136.909 34.474 136.002 34.474H129.13V34.4788ZM134.726 32.5942C134.726 31.237 133.929 30.0574 132.155 30.0574C130.54 30.0574 129.244 31.1268 129.13 32.5942H134.726Z" fill="white"/>
<path d="M139.953 29.5779C139.953 28.3982 140.84 28.2016 141.249 28.2016C141.657 28.2016 142.544 28.3982 142.544 29.5779V30.0814H142.589C143.068 29.0312 144.363 28.0913 145.978 28.0913C148.818 28.0913 150 30.1917 150 32.3353V37.6295C150 38.8763 149.093 39.0969 148.634 39.0969C148.181 39.0969 147.269 38.8763 147.269 37.6295V33.0786C147.269 31.8318 146.975 30.278 145.22 30.278C143.496 30.278 142.674 31.7215 142.674 33.1217V37.6295C142.674 38.8763 141.767 39.0969 141.308 39.0969C140.855 39.0969 139.943 38.8763 139.943 37.6295V29.5779H139.953Z" fill="white"/>
<path fill-rule="evenodd" clip-rule="evenodd" d="M8.17347 31.6682C5.36777 28.4121 3.08035 24.5133 1.64511 20.3653C0.145087 16.0254 -0.423028 11.4073 0.33446 6.97153C0.827824 4.08466 2.29795 0.612743 5.98572 3.08241C7.71997 4.24291 9.35455 6.53034 10.6702 7.9546C12.1802 9.58985 14.039 10.947 16.2467 12.0259C19.8547 13.7907 20.1787 16.1644 18.9627 19.6603C17.6819 23.3289 16.3414 26.9878 15.0706 30.6707C13.6104 34.8955 10.8895 34.8236 8.17347 31.6682Z" fill="url(#paint0_linear_742_2803)"/>
<path fill-rule="evenodd" clip-rule="evenodd" d="M8.31772 29.912C6.89743 25.4091 6.76786 20.6951 7.82934 16.2402C8.93069 11.6221 11.3078 7.27744 14.861 3.7288C19.2415 -0.64946 25.9891 -2.30869 27.9028 5.15305C28.3363 6.86024 28.9394 8.52426 29.6968 10.1116C30.564 11.9434 31.6404 13.6842 32.9062 15.3003C35.9361 19.175 33.9178 21.1076 30.3297 23.4813C25.1718 26.8957 19.1319 30.5594 13.6201 33.3552C11.3128 34.5301 9.743 34.4389 8.31772 29.912Z" fill="url(#paint1_linear_742_2803)"/>
<path fill-rule="evenodd" clip-rule="evenodd" d="M10.2315 29.2546C8.52213 30.4535 8.73642 32.0695 10.0919 33.3787C14.2282 37.3637 24.0905 39.1908 29.2584 39.21C33.3996 39.2244 36.9927 37.9728 38.413 33.8966C39.3399 31.2255 39.7287 28.1612 39.5692 24.7181C39.3798 20.6611 38.0094 19.0115 33.6388 20.3446C28.4411 21.9271 12.3345 27.7776 10.2315 29.2546Z" fill="url(#paint2_linear_742_2803)"/>
<path fill-rule="evenodd" clip-rule="evenodd" d="M15.3891 39.5985C15.7579 39.6465 15.9971 39.4738 16.0519 39.2916C16.1217 39.071 15.9523 38.7737 15.5237 38.6106C13.4556 37.8434 11.512 36.7116 9.6731 35.4408C8.05347 34.3283 6.59331 33.1246 5.05341 31.9306C4.64477 31.6141 3.63312 30.8612 3.29923 31.5901C3.09989 32.0313 3.11484 32.482 3.27929 32.9328C3.53843 33.6377 4.17134 34.3379 4.96371 34.9805C7.31093 36.9035 12.3343 39.2197 15.3891 39.5985Z" fill="#0071BC"/>
<defs>
<linearGradient id="paint0_linear_742_2803" x1="1.52307" y1="21.5742" x2="17.5921" y2="11.9331" gradientUnits="userSpaceOnUse">
<stop offset="0.3743" stop-color="#75B0CA"/>
<stop offset="0.5402" stop-color="#60A1C8"/>
<stop offset="0.7514" stop-color="#408AC6"/>
<stop offset="0.8771" stop-color="#1282C3"/>
</linearGradient>
<linearGradient id="paint1_linear_742_2803" x1="4.20581" y1="23.8308" x2="30.2382" y2="8.21168" gradientUnits="userSpaceOnUse">
<stop offset="0.2116" stop-color="#9E1F63"/>
<stop offset="0.5274" stop-color="#D91C5C"/>
<stop offset="0.9892" stop-color="#ED4663"/>
</linearGradient>
<linearGradient id="paint2_linear_742_2803" x1="13.1981" y1="38.8559" x2="39.7833" y2="22.9051" gradientUnits="userSpaceOnUse">
<stop stop-color="#FDC60B"/>
<stop offset="0.4481" stop-color="#F28F3F"/>
<stop offset="0.7156" stop-color="#ED693C"/>
<stop offset="1" stop-color="#E83E39"/>
</linearGradient>
</defs>
</svg>
