<svg width="17" height="16" viewBox="0 0 17 16" fill="none" xmlns="http://www.w3.org/2000/svg">
<g clip-path="url(#clip0_2204_5485)">
<path d="M2.5 4.66666C2.5 4.31304 2.64048 3.9739 2.89052 3.72385C3.14057 3.4738 3.47971 3.33333 3.83333 3.33333H13.1667C13.5203 3.33333 13.8594 3.4738 14.1095 3.72385C14.3595 3.9739 14.5 4.31304 14.5 4.66666V11.3333C14.5 11.6869 14.3595 12.0261 14.1095 12.2761C13.8594 12.5262 13.5203 12.6667 13.1667 12.6667H3.83333C3.47971 12.6667 3.14057 12.5262 2.89052 12.2761C2.64048 12.0261 2.5 11.6869 2.5 11.3333V4.66666Z" stroke="#0071BC" stroke-linecap="round" stroke-linejoin="round"/>
<path d="M2.5 4.66667L8.5 8.66667L14.5 4.66667" stroke="#0071BC" stroke-linecap="round" stroke-linejoin="round"/>
</g>
<defs>
<clipPath id="clip0_2204_5485">
<rect width="16" height="16" fill="white" transform="translate(0.5)"/>
</clipPath>
</defs>
</svg>
