<svg width="28" height="28" viewBox="0 0 28 28" fill="none" xmlns="http://www.w3.org/2000/svg">
<g clip-path="url(#clip0_1732_970)">
<path d="M24.5003 16.3333L21.0003 12.8333H12.8337C12.5242 12.8333 12.2275 12.7104 12.0087 12.4916C11.7899 12.2728 11.667 11.9761 11.667 11.6667V4.66667C11.667 4.35725 11.7899 4.0605 12.0087 3.84171C12.2275 3.62292 12.5242 3.5 12.8337 3.5H23.3337C23.6431 3.5 23.9398 3.62292 24.1586 3.84171C24.3774 4.0605 24.5003 4.35725 24.5003 4.66667V16.3333Z" stroke="#333333" stroke-width="2" stroke-linecap="round" stroke-linejoin="round"/>
<path d="M16.3333 17.4993V19.8327C16.3333 20.1421 16.2104 20.4388 15.9916 20.6576C15.7728 20.8764 15.4761 20.9993 15.1667 20.9993H7L3.5 24.4993V12.8327C3.5 12.5233 3.62292 12.2265 3.84171 12.0077C4.0605 11.7889 4.35725 11.666 4.66667 11.666H7" stroke="#333333" stroke-width="2" stroke-linecap="round" stroke-linejoin="round"/>
</g>
<defs>
<clipPath id="clip0_1732_970">
<rect width="28" height="28" fill="white"/>
</clipPath>
</defs>
</svg>
