<svg width="28" height="28" viewBox="0 0 28 28" fill="none" xmlns="http://www.w3.org/2000/svg">
<g clip-path="url(#clip0_4155_16946)">
<path d="M11.667 5.83333C11.667 5.21449 11.9128 4.621 12.3504 4.18342C12.788 3.74583 13.3815 3.5 14.0003 3.5C14.6192 3.5 15.2127 3.74583 15.6502 4.18342C16.0878 4.621 16.3337 5.21449 16.3337 5.83333C17.6735 6.46687 18.8156 7.45305 19.6377 8.68618C20.4598 9.91932 20.9308 11.3529 21.0003 12.8333V16.3333C21.0881 17.0587 21.345 17.7532 21.7503 18.3611C22.1555 18.9691 22.6979 19.4733 23.3337 19.8333H4.66699C5.30275 19.4733 5.8451 18.9691 6.25038 18.3611C6.65565 17.7532 6.91253 17.0587 7.00033 16.3333V12.8333C7.06981 11.3529 7.54084 9.91932 8.36293 8.68618C9.18502 7.45305 10.3272 6.46687 11.667 5.83333Z" stroke="white" stroke-width="2" stroke-linecap="round" stroke-linejoin="round"/>
<path d="M10.5 19.833V20.9997C10.5 21.9279 10.8687 22.8182 11.5251 23.4745C12.1815 24.1309 13.0717 24.4997 14 24.4997C14.9283 24.4997 15.8185 24.1309 16.4749 23.4745C17.1313 22.8182 17.5 21.9279 17.5 20.9997V19.833" stroke="white" stroke-width="2" stroke-linecap="round" stroke-linejoin="round"/>
<circle cx="20" cy="8" r="5" fill="url(#paint0_linear_4155_16946)"/>
</g>
<defs>
<linearGradient id="paint0_linear_4155_16946" x1="15" y1="8" x2="22.6387" y2="3.75298" gradientUnits="userSpaceOnUse">
<stop stop-color="#9E1F63"/>
<stop offset="0.9892" stop-color="#ED4663"/>
</linearGradient>
<clipPath id="clip0_4155_16946">
<rect width="28" height="28" fill="white"/>
</clipPath>
</defs>
</svg>