<svg width="310" height="54" viewBox="0 0 310 54" fill="none" xmlns="http://www.w3.org/2000/svg">
<rect width="310" height="54" fill="#F2F2F2"/>
<rect width="6" height="54" fill="url(#paint0_linear_1731_4886)"/>
<g clip-path="url(#clip0_1731_4886)">
<path d="M23.833 21.1667C23.833 22.4043 24.3247 23.5913 25.1998 24.4665C26.075 25.3417 27.262 25.8333 28.4997 25.8333C29.7374 25.8333 30.9243 25.3417 31.7995 24.4665C32.6747 23.5913 33.1663 22.4043 33.1663 21.1667C33.1663 19.929 32.6747 18.742 31.7995 17.8668C30.9243 16.9917 29.7374 16.5 28.4997 16.5C27.262 16.5 26.075 16.9917 25.1998 17.8668C24.3247 18.742 23.833 19.929 23.833 21.1667Z" fill="url(#paint1_linear_1731_4886)" stroke="url(#paint2_linear_1731_4886)" stroke-width="2" stroke-linecap="round" stroke-linejoin="round"/>
<path d="M21.5 37.5V35.1667C21.5 33.929 21.9917 32.742 22.8668 31.8668C23.742 30.9917 24.929 30.5 26.1667 30.5H30.8333C32.071 30.5 33.258 30.9917 34.1332 31.8668C35.0083 32.742 35.5 33.929 35.5 35.1667V37.5" fill="url(#paint3_linear_1731_4886)"/>
<path d="M21.5 37.5V35.1667C21.5 33.929 21.9917 32.742 22.8668 31.8668C23.742 30.9917 24.929 30.5 26.1667 30.5H30.8333C32.071 30.5 33.258 30.9917 34.1332 31.8668C35.0083 32.742 35.5 33.929 35.5 35.1667V37.5" stroke="url(#paint4_linear_1731_4886)" stroke-width="2" stroke-linecap="round" stroke-linejoin="round"/>
<path d="M36.667 16.6523C37.6708 16.9094 38.5605 17.4932 39.1959 18.3117C39.8313 19.1303 40.1761 20.137 40.1761 21.1732C40.1761 22.2094 39.8313 23.2161 39.1959 24.0346C38.5605 24.8532 37.6708 25.437 36.667 25.694" stroke="url(#paint5_linear_1731_4886)" stroke-width="2" stroke-linecap="round" stroke-linejoin="round"/>
<path d="M42.5 37.5008V35.1674C42.4941 34.1375 42.1476 33.1384 41.5145 32.3259C40.8814 31.5135 39.9973 30.9333 39 30.6758" stroke="url(#paint6_linear_1731_4886)" stroke-width="2" stroke-linecap="round" stroke-linejoin="round"/>
</g>
<path d="M57.316 33V23.2H58.814L63.098 30.354H62.314L66.528 23.2H68.026L68.04 33H66.318L66.304 25.902H66.668L63.084 31.88H62.272L58.632 25.902H59.052V33H57.316ZM71.1351 35.814C70.7711 35.814 70.4071 35.7533 70.0431 35.632C69.6791 35.5107 69.3758 35.3427 69.1331 35.128L69.8331 33.84C70.0104 33.9987 70.2111 34.1247 70.4351 34.218C70.6591 34.3113 70.8878 34.358 71.1211 34.358C71.4384 34.358 71.6951 34.2787 71.8911 34.12C72.0871 33.9613 72.2691 33.6953 72.4371 33.322L72.8711 32.342L73.0111 32.132L75.8391 25.524H77.5191L74.0191 33.602C73.7858 34.162 73.5244 34.6053 73.2351 34.932C72.9551 35.2587 72.6378 35.4873 72.2831 35.618C71.9378 35.7487 71.5551 35.814 71.1351 35.814ZM72.6751 33.266L69.3011 25.524H71.1211L73.8651 31.978L72.6751 33.266ZM82.65 33V23.2H84.148L90.294 30.746H89.552V23.2H91.358V33H89.86L83.714 25.454H84.456V33H82.65ZM97.33 33.098C96.4993 33.098 95.7713 32.9347 95.146 32.608C94.53 32.272 94.0493 31.8147 93.704 31.236C93.368 30.6573 93.2 29.9993 93.2 29.262C93.2 28.5153 93.3633 27.8573 93.69 27.288C94.026 26.7093 94.4833 26.2567 95.062 25.93C95.65 25.6033 96.3173 25.44 97.064 25.44C97.792 25.44 98.4406 25.5987 99.01 25.916C99.5793 26.2333 100.027 26.6813 100.354 27.26C100.681 27.8387 100.844 28.52 100.844 29.304C100.844 29.3787 100.839 29.4627 100.83 29.556C100.83 29.6493 100.825 29.738 100.816 29.822H94.586V28.66H99.892L99.206 29.024C99.2153 28.5947 99.1266 28.2167 98.94 27.89C98.7533 27.5633 98.4966 27.3067 98.17 27.12C97.8526 26.9333 97.484 26.84 97.064 26.84C96.6346 26.84 96.2566 26.9333 95.93 27.12C95.6126 27.3067 95.3606 27.568 95.174 27.904C94.9966 28.2307 94.908 28.618 94.908 29.066V29.346C94.908 29.794 95.0106 30.1907 95.216 30.536C95.4213 30.8813 95.7106 31.1473 96.084 31.334C96.4573 31.5207 96.8866 31.614 97.372 31.614C97.792 31.614 98.17 31.5487 98.506 31.418C98.842 31.2873 99.1406 31.082 99.402 30.802L100.34 31.88C100.004 32.272 99.5793 32.5753 99.066 32.79C98.562 32.9953 97.9833 33.098 97.33 33.098ZM105.339 33.098C104.518 33.098 103.883 32.888 103.435 32.468C102.987 32.0387 102.763 31.4087 102.763 30.578V23.872H104.513V30.536C104.513 30.8907 104.602 31.166 104.779 31.362C104.966 31.558 105.222 31.656 105.549 31.656C105.941 31.656 106.268 31.5533 106.529 31.348L107.019 32.594C106.814 32.762 106.562 32.888 106.263 32.972C105.964 33.056 105.656 33.098 105.339 33.098ZM101.531 26.98V25.58H106.515V26.98H101.531ZM109.974 33L107.23 25.524H108.882L111.234 32.118H110.45L112.914 25.524H114.384L116.778 32.118H116.008L118.43 25.524H119.984L117.226 33H115.546L113.362 27.162H113.88L111.654 33H109.974ZM124.342 33.098C123.577 33.098 122.895 32.9347 122.298 32.608C121.701 32.272 121.229 31.8147 120.884 31.236C120.539 30.6573 120.366 29.9993 120.366 29.262C120.366 28.5153 120.539 27.8573 120.884 27.288C121.229 26.7093 121.701 26.2567 122.298 25.93C122.895 25.6033 123.577 25.44 124.342 25.44C125.117 25.44 125.803 25.6033 126.4 25.93C127.007 26.2567 127.478 26.7047 127.814 27.274C128.159 27.8433 128.332 28.506 128.332 29.262C128.332 29.9993 128.159 30.6573 127.814 31.236C127.478 31.8147 127.007 32.272 126.4 32.608C125.803 32.9347 125.117 33.098 124.342 33.098ZM124.342 31.6C124.771 31.6 125.154 31.5067 125.49 31.32C125.826 31.1333 126.087 30.8627 126.274 30.508C126.47 30.1533 126.568 29.738 126.568 29.262C126.568 28.7767 126.47 28.3613 126.274 28.016C126.087 27.6613 125.826 27.3907 125.49 27.204C125.154 27.0173 124.776 26.924 124.356 26.924C123.927 26.924 123.544 27.0173 123.208 27.204C122.881 27.3907 122.62 27.6613 122.424 28.016C122.228 28.3613 122.13 28.7767 122.13 29.262C122.13 29.738 122.228 30.1533 122.424 30.508C122.62 30.8627 122.881 31.1333 123.208 31.32C123.544 31.5067 123.922 31.6 124.342 31.6ZM130.005 33V25.524H131.671V27.582L131.475 26.98C131.699 26.476 132.049 26.0933 132.525 25.832C133.011 25.5707 133.613 25.44 134.331 25.44V27.106C134.257 27.0873 134.187 27.078 134.121 27.078C134.056 27.0687 133.991 27.064 133.925 27.064C133.263 27.064 132.735 27.26 132.343 27.652C131.951 28.0347 131.755 28.6087 131.755 29.374V33H130.005ZM137.244 31.334L137.286 29.136L141.192 25.524H143.292L139.974 28.856L139.05 29.626L137.244 31.334ZM135.816 33V22.612H137.566V33H135.816ZM141.458 33L138.728 29.626L139.834 28.226L143.586 33H141.458Z" fill="url(#paint7_linear_1731_4886)"/>
<defs>
<linearGradient id="paint0_linear_1731_4886" x1="-4.1422e-08" y1="27" x2="5.97719" y2="26.6308" gradientUnits="userSpaceOnUse">
<stop stop-color="#9E1F63"/>
<stop offset="0.9892" stop-color="#ED4663"/>
</linearGradient>
<linearGradient id="paint1_linear_1731_4886" x1="23.833" y1="21.1667" x2="30.9625" y2="17.2028" gradientUnits="userSpaceOnUse">
<stop stop-color="#9E1F63"/>
<stop offset="0.9892" stop-color="#ED4663"/>
</linearGradient>
<linearGradient id="paint2_linear_1731_4886" x1="23.833" y1="21.1667" x2="30.9625" y2="17.2028" gradientUnits="userSpaceOnUse">
<stop stop-color="#9E1F63"/>
<stop offset="0.9892" stop-color="#ED4663"/>
</linearGradient>
<linearGradient id="paint3_linear_1731_4886" x1="21.5" y1="34" x2="27.7598" y2="27.0392" gradientUnits="userSpaceOnUse">
<stop stop-color="#9E1F63"/>
<stop offset="0.9892" stop-color="#ED4663"/>
</linearGradient>
<linearGradient id="paint4_linear_1731_4886" x1="21.5" y1="34" x2="27.7598" y2="27.0392" gradientUnits="userSpaceOnUse">
<stop stop-color="#9E1F63"/>
<stop offset="0.9892" stop-color="#ED4663"/>
</linearGradient>
<linearGradient id="paint5_linear_1731_4886" x1="36.667" y1="21.1732" x2="40.02" y2="20.4497" gradientUnits="userSpaceOnUse">
<stop stop-color="#9E1F63"/>
<stop offset="0.9892" stop-color="#ED4663"/>
</linearGradient>
<linearGradient id="paint6_linear_1731_4886" x1="39" y1="34.0883" x2="42.2369" y2="33.1654" gradientUnits="userSpaceOnUse">
<stop stop-color="#9E1F63"/>
<stop offset="0.9892" stop-color="#ED4663"/>
</linearGradient>
<linearGradient id="paint7_linear_1731_4886" x1="56" y1="27.5" x2="65.4795" y2="0.217435" gradientUnits="userSpaceOnUse">
<stop stop-color="#9E1F63"/>
<stop offset="0.9892" stop-color="#ED4663"/>
</linearGradient>
<clipPath id="clip0_1731_4886">
<rect width="28" height="28" fill="white" transform="translate(18 13)"/>
</clipPath>
</defs>
</svg>
