<svg width="29" height="30" viewBox="0 0 29 30" fill="none" xmlns="http://www.w3.org/2000/svg">
<ellipse opacity="0.8" cx="14.1787" cy="15" rx="14.1787" ry="15" fill="white" fill-opacity="0.68"/>
<g clip-path="url(#clip0_2404_7989)">
<path d="M11.3428 10.5001V18.4999C11.3427 18.5888 11.3667 18.6762 11.412 18.7529C11.4574 18.8297 11.5226 18.893 11.6009 18.9364C11.6792 18.9798 11.7677 19.0017 11.8574 18.9999C11.9471 18.998 12.0346 18.9725 12.111 18.9259L18.6645 14.926C18.7379 14.8813 18.7986 14.8186 18.8406 14.744C18.8827 14.6695 18.9047 14.5854 18.9047 14.5C18.9047 14.4146 18.8827 14.3305 18.8406 14.256C18.7986 14.1814 18.7379 14.1187 18.6645 14.074L12.111 10.0741C12.0346 10.0275 11.9471 10.002 11.8574 10.0001C11.7677 9.99825 11.6792 10.0202 11.6009 10.0636C11.5226 10.107 11.4574 10.1703 11.412 10.2471C11.3667 10.3238 11.3427 10.4112 11.3428 10.5001Z" fill="#333333"/>
</g>
<defs>
<clipPath id="clip0_2404_7989">
<rect width="11.3429" height="12" fill="white" transform="translate(8.50684 9)"/>
</clipPath>
</defs>
</svg>
