<svg width="14" height="15" viewBox="0 0 14 15" fill="none" xmlns="http://www.w3.org/2000/svg">
<g id="Search" clip-path="url(#clip0_2576_3495)">
<g id="Iconly/Light-Outline/Search">
<g id="Search_2">
<path id="Combined-Shape" fill-rule="evenodd" clip-rule="evenodd" d="M6.76126 1.375C10.0074 1.375 12.6479 3.95722 12.6479 7.13179C12.6479 8.62954 12.0601 9.99557 11.0983 11.0208L12.9909 12.8677C13.168 13.0409 13.1686 13.3211 12.9915 13.4944C12.9032 13.5818 12.7866 13.625 12.6705 13.625C12.555 13.625 12.439 13.5818 12.3501 13.4955L10.4347 11.6276C9.42715 12.4167 8.1496 12.8892 6.76126 12.8892C3.51509 12.8892 0.874023 10.3064 0.874023 7.13179C0.874023 3.95722 3.51509 1.375 6.76126 1.375ZM6.76126 2.26175C4.01501 2.26175 1.78077 4.44612 1.78077 7.13179C1.78077 9.81747 4.01501 12.0024 6.76126 12.0024C9.5069 12.0024 11.7411 9.81747 11.7411 7.13179C11.7411 4.44612 9.5069 2.26175 6.76126 2.26175Z" fill="#333333"/>
</g>
</g>
</g>
<defs>
<clipPath id="clip0_2576_3495">
<rect width="14" height="14" fill="white" transform="translate(-0.000488281 0.5)"/>
</clipPath>
</defs>
</svg>
