<svg width="36" height="36" viewBox="0 0 36 36" fill="none" xmlns="http://www.w3.org/2000/svg">
<path d="M18 0C13.2261 0 8.64773 1.89642 5.27208 5.27208C1.89642 8.64773 0 13.2261 0 18C0 22.7739 1.89642 27.3523 5.27208 30.7279C8.64773 34.1036 13.2261 36 18 36C22.7739 36 27.3523 34.1036 30.7279 30.7279C34.1036 27.3523 36 22.7739 36 18C36 13.2261 34.1036 8.64773 30.7279 5.27208C27.3523 1.89642 22.7739 0 18 0Z" fill="#3B5998"/>
<path d="M20.4366 22.7709H25.0948L25.8262 18.0388H20.4357V15.4525C20.4357 13.4867 21.078 11.7435 22.9168 11.7435H25.8717V7.61396C25.3525 7.54385 24.2545 7.39038 22.1798 7.39038C17.8475 7.39038 15.3076 9.67828 15.3076 14.8907V18.0388H10.854V22.7709H15.3076V35.7773C16.1896 35.91 17.083 36 18 36C18.829 36 19.638 35.9242 20.4366 35.8162V22.7709Z" fill="white"/>
</svg>
