
<svg width="30" height="30" viewBox="0 0 30 30" fill="none" xmlns="http://www.w3.org/2000/svg">
<path fill-rule="evenodd" clip-rule="evenodd" d="M6.19129 23.9856C4.06601 21.5193 2.33332 18.5662 1.24615 15.4242C0.109901 12.137 -0.320438 8.63905 0.253349 5.27915C0.627065 3.09249 1.74066 0.462688 4.5341 2.33333C5.84777 3.21236 7.08594 4.94497 8.08252 6.02377C9.22632 7.2624 10.6344 8.29035 12.3066 9.10762C15.0397 10.4443 15.2851 12.2423 14.364 14.8903C13.3938 17.669 12.3784 20.4405 11.4158 23.2301C10.3097 26.4302 8.24862 26.3757 6.19129 23.9856Z" fill="url(#paint0_linear_1351_36)"/>
<path fill-rule="evenodd" clip-rule="evenodd" d="M6.29981 22.6565C5.22396 19.2457 5.12581 15.6752 5.92987 12.3007C6.76412 8.80281 8.56476 5.51193 11.2563 2.82401C14.5744 -0.492303 19.6856 -1.74909 21.1352 3.90281C21.4636 5.19591 21.9204 6.45633 22.4942 7.65863C23.151 9.04618 23.9664 10.3647 24.9252 11.5888C27.2204 14.5237 25.6915 15.9875 22.9736 17.7855C19.0666 20.3718 14.4914 23.1469 10.3163 25.2645C8.56853 26.1544 7.37943 26.0854 6.29981 22.6565Z" fill="url(#paint1_linear_1351_36)"/>
<path fill-rule="evenodd" clip-rule="evenodd" d="M7.75072 22.1588C6.45592 23.0669 6.61824 24.291 7.64502 25.2826C10.7782 28.301 18.2487 29.685 22.1633 29.6995C25.3003 29.7104 28.022 28.7623 29.0978 25.6749C29.8 23.6517 30.0944 21.3306 29.9736 18.7226C29.8302 15.6497 28.7921 14.4001 25.4815 15.4099C21.5442 16.6086 9.34373 21.04 7.75072 22.1588Z" fill="url(#paint2_linear_1351_36)"/>
<path fill-rule="evenodd" clip-rule="evenodd" d="M11.656 29.994C11.9354 30.0303 12.1166 29.8995 12.1581 29.7615C12.211 29.5944 12.0826 29.3692 11.758 29.2457C10.1914 28.6646 8.71916 27.8073 7.32621 26.8448C6.09937 26.0021 4.99332 25.0904 3.82687 24.1859C3.51733 23.9462 2.75102 23.3759 2.4981 23.928C2.3471 24.2622 2.35843 24.6036 2.483 24.9451C2.6793 25.479 3.15871 26.0093 3.75892 26.4961C5.53691 27.9526 9.34202 29.707 11.656 29.994Z" fill="#0071BC"/>
<defs>
<linearGradient id="paint0_linear_1351_36" x1="1.1537" y1="16.34" x2="13.3254" y2="9.03679" gradientUnits="userSpaceOnUse">
<stop offset="0.3743" stop-color="#75B0CA"/>
<stop offset="0.5402" stop-color="#60A1C8"/>
<stop offset="0.7514" stop-color="#408AC6"/>
<stop offset="0.8771" stop-color="#1282C3"/>
</linearGradient>
<linearGradient id="paint1_linear_1351_36" x1="3.18509" y1="18.0502" x2="22.9038" y2="6.21874" gradientUnits="userSpaceOnUse">
<stop offset="0.2116" stop-color="#9E1F63"/>
<stop offset="0.5274" stop-color="#D91C5C"/>
<stop offset="0.9892" stop-color="#ED4663"/>
</linearGradient>
<linearGradient id="paint2_linear_1351_36" x1="9.99788" y1="29.4313" x2="30.1353" y2="17.3485" gradientUnits="userSpaceOnUse">
<stop stop-color="#FDC60B"/>
<stop offset="0.4481" stop-color="#F28F3F"/>
<stop offset="0.7156" stop-color="#ED693C"/>
<stop offset="1" stop-color="#E83E39"/>
</linearGradient>
</defs>
</svg>
